# xmcd
#
# Track frame offsets:
#	150
#	22731
#	48358
#	70019
#	104231
#	130802
#	153623
#	179235
#	203299
#	224920
#
# Disc length: 3355 seconds
#
# Revision: 0
# Processed by: cddbd v1.4PL0 Copyright (c) Steve Scherf et al.
# Submitted via: dBpowerAMP V4.0
#
DISCID=940d190a
DTITLE=Lady Sunshine and the X Band - Man Trouble
DYEAR=1900
DGENRE=Blues
TTITLE0=Man Trouble
TTITLE1=Still tippin'
TTITLE2=Losing Track of Time
TTITLE3=Freaky Tonight
TTITLE4=I'm Ready
TTITLE5=I'm Gonna Get Your Love
TTITLE6=I'm Giving Up
TTITLE7=Don't Send Me In the Streets
TTITLE8=Hey, Mister Man
TTITLE9=Be Man Enough to Mean It
EXTD=Lady Sunshine and the X Band\nMan Trouble\nRecorded at Big Sky Studios, Ann Arbor Michigan\nwww.lsxband.com
EXTT0=
EXTT1=
EXTT2=
EXTT3=
EXTT4=
EXTT5=
EXTT6=
EXTT7=
EXTT8=
EXTT9=
PLAYORDER=
